<svg xmlns="http://www.w3.org/2000/svg" xmlns:xlink="http://www.w3.org/1999/xlink" version="1.1" x="0px" y="0px" viewBox="0 0 100 100" enable-background="new 0 0 100 100" xml:space="preserve" style="max-width:100%" height="100%"><g style="" fill="currentColor"><path d="M89.763,46.068v-2.939c0-4.337-3.528-7.865-7.865-7.865h-9.476c-1.104,0-2,0.896-2,2v26.253h-4.899V32.719   c0-4.336-3.528-7.863-7.864-7.863H25.735c-4.336,0-7.864,3.527-7.864,7.863v2.913h-2.125c-1.104,0-2,0.896-2,2s0.896,2,2,2h18.342   c1.104,0,2-0.896,2-2s-0.896-2-2-2H21.871v-2.913c0-2.13,1.733-3.863,3.864-3.863h31.923c2.131,0,3.864,1.733,3.864,3.863v30.798   H44.543c-0.924-4.353-4.793-7.629-9.416-7.629c-4.624,0-8.494,3.276-9.418,7.629h-3.838v-9.21h1.212c1.104,0,2-0.896,2-2   s-0.896-2-2-2h-3.207c-0.002,0-0.003-0.001-0.005-0.001s-0.003,0.001-0.005,0.001H4.738c-1.104,0-2,0.896-2,2s0.896,2,2,2h13.133   v11.21c0,1.104,0.896,2,2,2h5.838c0.924,4.352,4.794,7.628,9.418,7.628c4.623,0,8.492-3.276,9.416-7.628h18.979h7.111   c0.924,4.352,4.795,7.628,9.418,7.628s8.492-3.276,9.416-7.628h5.794c1.104,0,2-0.896,2-2V53.923   C97.262,49.71,93.931,46.261,89.763,46.068z M35.127,71.145c-3.104,0-5.63-2.525-5.63-5.628c0-3.104,2.525-5.629,5.63-5.629   c3.104,0,5.628,2.524,5.628,5.629C40.755,68.619,38.23,71.145,35.127,71.145z M80.052,71.145c-3.104,0-5.63-2.525-5.63-5.628   c0-3.104,2.525-5.629,5.63-5.629c3.104,0,5.628,2.524,5.628,5.629C85.68,68.619,83.155,71.145,80.052,71.145z M93.262,63.517   h-3.794c-0.924-4.353-4.793-7.629-9.416-7.629c-2.103,0-4.044,0.685-5.63,1.833V39.264h7.476c2.131,0,3.865,1.734,3.865,3.865   v4.931c0,1.104,0.896,2,2,2h1.633c2.132,0,3.866,1.733,3.866,3.863V63.517z" style="" fill="currentColor"></path><path d="M10.242,46.969h18.343c1.104,0,2-0.896,2-2s-0.896-2-2-2H10.242c-1.104,0-2,0.896-2,2S9.138,46.969,10.242,46.969z" style="" fill="currentColor"></path></g></svg>