<svg xmlns="http://www.w3.org/2000/svg" xmlns:xlink="http://www.w3.org/1999/xlink" version="1.1" x="0px" y="0px" viewBox="0 0 90 90" enable-background="new 0 0 90 90" xml:space="preserve" style="max-width:100%" height="100%"><path d="M23.139,51.906c1.813-0.047,3.594,0.433,5.785,1.172c4.381,1.484,10.063,4.214,18.834,5.646  c7.182,1.172,6.521,4.933,6.334,5.271c-0.297,0.541-0.402,0.646-1.059,0.838c-0.656,0.188-1.9,0.276-3.781,0.198l-12.441-0.542  c-2.521-0.109-2.684,3.672-0.162,3.781l12.443,0.531c2.025,0.089,3.613,0.167,4.988-0.349c1.891-0.703,3-1.86,3.309-3.661  l17.504-5.866c2.98-1,4.73,0.21,5.438,1.543c0.355,0.667,0.418,1.339,0.215,1.917c-0.199,0.578-0.646,1.161-1.813,1.625  L50.674,75.188c-3.338,0.942-8.672-0.141-13.797-1.604c-2.572-0.729-5.094-1.525-7.391-2.088c-2.297-0.564-4.332-0.964-6.254-0.641  l-5.422,0.904c-0.734,0.127-1.934-0.264-3.262-1.379c-1.322-1.109-2.66-2.828-3.629-4.656c-0.965-1.828-1.553-3.781-1.59-5.234  c-0.035-1.453,0.287-2.177,0.703-2.422c0-0.005,7.125-4.188,7.125-4.188C19.482,52.521,21.326,51.953,23.139,51.906z M52.857,14.458  c2.416,0.053,4.848,0.479,7.219,1.313c9.484,3.322,15.775,12.313,15.65,22.359s-6.641,18.875-16.203,21.959  c-0.068,0.021-0.131,0.041-0.193,0.067l-2.375,0.797c-1.057-2.625-3.354-5.109-8.594-5.964c-6.869-1.119-11.582-3.031-15.719-4.578  c-5.322-8.338-4.844-19.114,1.25-26.942C38.523,17.526,45.602,14.297,52.857,14.458z M52.945,10.683  c-8.422-0.184-16.656,3.567-22.025,10.464c-6.203,7.957-7.402,18.583-3.443,27.604c-1.484-0.344-2.979-0.552-4.51-0.5  c-2.443,0.083-4.98,0.771-7.719,2.38l-6.703,3.933c-2.178,1.26-3.047,3.719-2.99,6.021c0.057,2.308,0.85,4.682,2.021,6.906  c1.172,2.218,2.738,4.266,4.547,5.787c1.807,1.516,3.969,2.604,6.313,2.213l5.426-0.906c0.834-0.141,2.605,0.063,4.725,0.584  c2.125,0.521,4.625,1.302,7.256,2.052c5.26,1.495,10.994,3.011,15.9,1.598c0.063-0.015,0.125-0.04,0.182-0.062l28.209-11.239  c1.984-0.792,3.396-2.219,3.979-3.88c0.584-1.667,0.35-3.459-0.441-4.948c-1.584-2.979-5.547-4.828-9.975-3.344l-0.828,0.276  c4.109-4.74,6.557-10.864,6.641-17.438c0.146-11.656-7.178-22.12-18.178-25.979C58.58,11.239,55.752,10.745,52.945,10.683z" style="" fill="currentColor"></path><path d="M53.367,23.166c-1.047,0.017-1.875,0.875-1.859,1.923v3.25c-0.344,0.031-0.682,0.072-1.006,0.135  c-2.375,0.469-4.182,1.865-4.973,3.677c-0.793,1.813-0.49,4.032,0.9,5.573c1.385,1.541,3.678,2.339,6.5,2.172  c2.01-0.12,2.906,0.479,3.271,0.959c0.369,0.479,0.391,1,0.051,1.572c-0.285,0.49-0.844,1.162-2.172,1.49  c-1.322,0.328-3.566,0.291-7.119-1.172c-2.381-1.09-3.896,2.582-1.443,3.489c2.297,0.948,4.277,1.427,5.99,1.573v2.781  c-0.047,2.566,3.822,2.566,3.775,0v-3.095c2.168-0.624,3.547-1.989,4.234-3.155c1.043-1.776,0.975-4.094-0.313-5.781  c-1.285-1.688-3.613-2.604-6.066-2.459c-2.453,0.141-3.465-0.416-3.906-0.906c-0.438-0.488-0.484-0.969-0.246-1.526  c0.246-0.558,0.865-1.208,2.246-1.479c1.379-0.271,3.531-0.104,6.432,1.208c2.354,1.208,4.021-2.469,1.557-3.438  c-1.4-0.636-2.707-1.067-3.938-1.333v-3.536C55.305,24.021,54.436,23.15,53.367,23.166z" style="" fill="currentColor"></path></svg>