<svg width="866" height="480" viewBox="0 0 866 480" fill="none" xmlns="http://www.w3.org/2000/svg">
<path d="M141.2 336.6L123.8 354H89.2V336.8L69.4 356.4V214.4L89.2 193.6V262.6L101.6 250.2H123.8L141.2 267.6V336.6ZM121.4 336.6V267.6H89.2V336.6H121.4ZM263.469 354H243.669V339.2L228.869 354H209.069L191.869 336.6V302.2L209.069 284.8H241.669L225.269 302H211.469V336.6H243.669V267.6H189.269L204.069 250.2H246.269L263.469 267.6V354ZM378.469 267.6H329.069V284.8H356.269L373.669 302.2V336.6L356.269 354H309.269V336.6H353.869V302.2H326.669L309.269 284.8V267.6L326.669 250.2H360.869L378.469 267.6ZM479.789 267.6H430.389V284.8H457.589L474.989 302.2V336.6L457.589 354H410.589V336.6H455.189V302.2H427.989L410.589 284.8V267.6L427.989 250.2H462.189L479.789 267.6ZM542.309 233.2H522.509V213.4H542.309V233.2ZM542.309 354H522.509V265.4L542.309 245.4V354ZM669.206 354H649.606V339.2L635.206 354H615.006L597.806 336.6V267.6L615.006 250.2H649.606V215.6L669.206 196V354ZM649.606 336.6V252.6L634.406 267.6H617.606V336.6H649.606ZM796.503 354H742.303L725.103 336.6V267.6L742.303 250.2H779.303L796.503 267.6V302.2L779.303 319.4H747.303L764.903 302.2H776.903V267.6H744.903V336.6H796.503V354Z" fill="black"/>
<path d="M29.85 465V443.625C29.85 441.675 29.725 439.975 29.475 438.525C29.275 437.025 28.875 435.8 28.275 434.85C27.675 433.85 26.85 433.1 25.8 432.6C24.8 432.1 23.475 431.85 21.825 431.85C19.475 431.85 17.35 432.625 15.45 434.175C13.55 435.675 12.325 437.625 11.775 440.025V465H5.775V412.5H11.775V431.7H12.075C13.375 430.15 14.925 428.925 16.725 428.025C18.575 427.075 20.85 426.6 23.55 426.6C25.65 426.6 27.475 426.85 29.025 427.35C30.575 427.8 31.85 428.625 32.85 429.825C33.9 431.025 34.65 432.65 35.1 434.7C35.6 436.7 35.85 439.25 35.85 442.35V465H29.85ZM79.0406 462C77.5406 463.2 75.6406 464.15 73.3406 464.85C71.0906 465.55 68.6906 465.9 66.1406 465.9C63.2906 465.9 60.8156 465.45 58.7156 464.55C56.6156 463.6 54.8906 462.275 53.5406 460.575C52.1906 458.825 51.1906 456.75 50.5406 454.35C49.8906 451.95 49.5656 449.25 49.5656 446.25C49.5656 439.85 50.9906 434.975 53.8406 431.625C56.6906 428.275 60.7656 426.6 66.0656 426.6C67.7656 426.6 69.4656 426.8 71.1656 427.2C72.8656 427.55 74.3906 428.25 75.7406 429.3C77.0906 430.35 78.1906 431.85 79.0406 433.8C79.8906 435.7 80.3156 438.225 80.3156 441.375C80.3156 443.025 80.1656 444.85 79.8656 446.85H55.7906C55.7906 449.05 56.0156 451 56.4656 452.7C56.9156 454.4 57.6156 455.85 58.5656 457.05C59.5156 458.2 60.7406 459.1 62.2406 459.75C63.7906 460.35 65.6656 460.65 67.8656 460.65C69.5656 460.65 71.2656 460.35 72.9656 459.75C74.6656 459.15 75.9406 458.45 76.7906 457.65L79.0406 462ZM66.1406 431.85C63.1906 431.85 60.8156 432.625 59.0156 434.175C57.2656 435.725 56.2156 438.375 55.8656 442.125H74.4656C74.4656 438.325 73.7406 435.675 72.2906 434.175C70.8406 432.625 68.7906 431.85 66.1406 431.85ZM94.0266 430.275C95.9266 429.125 98.1266 428.275 100.627 427.725C103.177 427.175 105.827 426.9 108.577 426.9C111.177 426.9 113.252 427.25 114.802 427.95C116.402 428.65 117.602 429.575 118.402 430.725C119.252 431.825 119.802 433.05 120.052 434.4C120.352 435.75 120.502 437.1 120.502 438.45C120.502 441.45 120.427 444.375 120.277 447.225C120.127 450.075 120.052 452.775 120.052 455.325C120.052 457.175 120.127 458.925 120.277 460.575C120.427 462.225 120.702 463.75 121.102 465.15H116.677L115.102 459.9H114.727C114.277 460.6 113.702 461.3 113.002 462C112.352 462.65 111.552 463.25 110.602 463.8C109.652 464.3 108.552 464.725 107.302 465.075C106.052 465.425 104.627 465.6 103.027 465.6C101.427 465.6 99.9266 465.35 98.5266 464.85C97.1766 464.35 96.0016 463.65 95.0016 462.75C94.0016 461.8 93.2016 460.675 92.6016 459.375C92.0516 458.075 91.7766 456.6 91.7766 454.95C91.7766 452.75 92.2266 450.925 93.1266 449.475C94.0266 447.975 95.2766 446.8 96.8766 445.95C98.5266 445.05 100.477 444.425 102.727 444.075C105.027 443.675 107.552 443.475 110.302 443.475C111.002 443.475 111.677 443.475 112.327 443.475C113.027 443.475 113.727 443.525 114.427 443.625C114.577 442.125 114.652 440.775 114.652 439.575C114.652 436.825 114.102 434.9 113.002 433.8C111.902 432.7 109.902 432.15 107.002 432.15C106.152 432.15 105.227 432.225 104.227 432.375C103.277 432.475 102.277 432.65 101.227 432.9C100.227 433.1 99.2516 433.375 98.3016 433.725C97.4016 434.025 96.6016 434.375 95.9016 434.775L94.0266 430.275ZM104.677 460.35C106.077 460.35 107.327 460.175 108.427 459.825C109.527 459.425 110.477 458.95 111.277 458.4C112.077 457.8 112.727 457.15 113.227 456.45C113.777 455.75 114.177 455.075 114.427 454.425V448.2C113.727 448.15 113.002 448.125 112.252 448.125C111.552 448.075 110.852 448.05 110.152 448.05C108.602 448.05 107.077 448.15 105.577 448.35C104.127 448.5 102.827 448.825 101.677 449.325C100.577 449.775 99.6766 450.425 98.9766 451.275C98.3266 452.075 98.0016 453.1 98.0016 454.35C98.0016 456.1 98.6266 457.55 99.8766 458.7C101.127 459.8 102.727 460.35 104.677 460.35ZM165.509 452.1C165.509 454.65 165.534 456.975 165.584 459.075C165.634 461.125 165.859 463.15 166.259 465.15H162.209L160.709 459.825H160.409C159.409 461.575 157.959 463.025 156.059 464.175C154.159 465.325 151.934 465.9 149.384 465.9C144.384 465.9 140.659 464.325 138.209 461.175C135.809 458.025 134.609 453.1 134.609 446.4C134.609 440 136.109 435.15 139.109 431.85C142.159 428.5 146.334 426.825 151.634 426.825C153.484 426.825 154.934 426.925 155.984 427.125C157.084 427.325 158.259 427.65 159.509 428.1V412.5H165.509V452.1ZM150.359 460.65C152.909 460.65 154.934 460 156.434 458.7C157.934 457.35 158.959 455.325 159.509 452.625V434.025C158.609 433.325 157.584 432.825 156.434 432.525C155.284 432.225 153.759 432.075 151.859 432.075C148.409 432.075 145.709 433.225 143.759 435.525C141.809 437.775 140.834 441.4 140.834 446.4C140.834 448.45 140.984 450.35 141.284 452.1C141.634 453.85 142.184 455.35 142.934 456.6C143.684 457.85 144.659 458.85 145.859 459.6C147.109 460.3 148.609 460.65 150.359 460.65ZM181.94 427.5H186.065L187.19 432H187.49C188.64 430.25 190.115 428.925 191.915 428.025C193.765 427.075 195.865 426.6 198.215 426.6C203.215 426.6 206.94 428.075 209.39 431.025C211.84 433.975 213.065 438.8 213.065 445.5C213.065 448.65 212.64 451.5 211.79 454.05C210.99 456.55 209.84 458.675 208.34 460.425C206.84 462.175 205.015 463.525 202.865 464.475C200.765 465.425 198.415 465.9 195.815 465.9C193.965 465.9 192.49 465.775 191.39 465.525C190.34 465.325 189.19 464.95 187.94 464.4V480H181.94V427.5ZM197.09 431.85C194.54 431.85 192.515 432.525 191.015 433.875C189.565 435.175 188.54 437.175 187.94 439.875V458.475C188.84 459.175 189.865 459.725 191.015 460.125C192.165 460.475 193.69 460.65 195.59 460.65C199.04 460.65 201.765 459.375 203.765 456.825C205.815 454.225 206.84 450.425 206.84 445.425C206.84 443.375 206.665 441.525 206.315 439.875C205.965 438.175 205.39 436.75 204.59 435.6C203.84 434.4 202.84 433.475 201.59 432.825C200.39 432.175 198.89 431.85 197.09 431.85ZM251.466 465V443.625C251.466 441.675 251.341 439.975 251.091 438.525C250.891 437.025 250.491 435.8 249.891 434.85C249.291 433.85 248.466 433.1 247.416 432.6C246.416 432.1 245.091 431.85 243.441 431.85C241.091 431.85 238.966 432.625 237.066 434.175C235.166 435.675 233.941 437.625 233.391 440.025V465H227.391V412.5H233.391V431.7H233.691C234.991 430.15 236.541 428.925 238.341 428.025C240.191 427.075 242.466 426.6 245.166 426.6C247.266 426.6 249.091 426.85 250.641 427.35C252.191 427.8 253.466 428.625 254.466 429.825C255.516 431.025 256.266 432.65 256.716 434.7C257.216 436.7 257.466 439.25 257.466 442.35V465H251.466ZM271.182 446.25C271.182 439.9 272.582 435.05 275.382 431.7C278.232 428.3 282.307 426.6 287.607 426.6C290.407 426.6 292.832 427.075 294.882 428.025C296.982 428.925 298.707 430.25 300.057 432C301.407 433.7 302.407 435.775 303.057 438.225C303.707 440.625 304.032 443.3 304.032 446.25C304.032 452.6 302.607 457.475 299.757 460.875C296.957 464.225 292.907 465.9 287.607 465.9C284.807 465.9 282.357 465.45 280.257 464.55C278.207 463.6 276.507 462.275 275.157 460.575C273.807 458.825 272.807 456.75 272.157 454.35C271.507 451.9 271.182 449.2 271.182 446.25ZM277.407 446.25C277.407 448.15 277.582 449.975 277.932 451.725C278.332 453.475 278.932 455 279.732 456.3C280.532 457.6 281.582 458.65 282.882 459.45C284.182 460.25 285.757 460.65 287.607 460.65C294.407 460.7 297.807 455.9 297.807 446.25C297.807 444.3 297.607 442.45 297.207 440.7C296.857 438.95 296.282 437.425 295.482 436.125C294.682 434.825 293.632 433.8 292.332 433.05C291.032 432.25 289.457 431.85 287.607 431.85C280.807 431.8 277.407 436.6 277.407 446.25ZM342.442 465V443.625C342.442 439.725 341.867 436.8 340.717 434.85C339.617 432.85 337.567 431.85 334.567 431.85C331.917 431.85 329.717 432.575 327.967 434.025C326.267 435.425 325.067 437.2 324.367 439.35V465H318.367V427.5H322.567L323.692 432.075H323.992C325.192 430.475 326.792 429.175 328.792 428.175C330.842 427.125 333.267 426.6 336.067 426.6C338.117 426.6 339.917 426.85 341.467 427.35C343.017 427.8 344.292 428.625 345.292 429.825C346.342 431.025 347.117 432.65 347.617 434.7C348.167 436.7 348.442 439.25 348.442 442.35V465H342.442ZM391.632 462C390.132 463.2 388.232 464.15 385.932 464.85C383.682 465.55 381.282 465.9 378.732 465.9C375.882 465.9 373.407 465.45 371.307 464.55C369.207 463.6 367.482 462.275 366.132 460.575C364.782 458.825 363.782 456.75 363.132 454.35C362.482 451.95 362.157 449.25 362.157 446.25C362.157 439.85 363.582 434.975 366.432 431.625C369.282 428.275 373.357 426.6 378.657 426.6C380.357 426.6 382.057 426.8 383.757 427.2C385.457 427.55 386.982 428.25 388.332 429.3C389.682 430.35 390.782 431.85 391.632 433.8C392.482 435.7 392.907 438.225 392.907 441.375C392.907 443.025 392.757 444.85 392.457 446.85H368.382C368.382 449.05 368.607 451 369.057 452.7C369.507 454.4 370.207 455.85 371.157 457.05C372.107 458.2 373.332 459.1 374.832 459.75C376.382 460.35 378.257 460.65 380.457 460.65C382.157 460.65 383.857 460.35 385.557 459.75C387.257 459.15 388.532 458.45 389.382 457.65L391.632 462ZM378.732 431.85C375.782 431.85 373.407 432.625 371.607 434.175C369.857 435.725 368.807 438.375 368.457 442.125H387.057C387.057 438.325 386.332 435.675 384.882 434.175C383.432 432.625 381.382 431.85 378.732 431.85ZM423.718 454.8C423.718 453.3 423.268 452.125 422.368 451.275C421.468 450.425 420.343 449.725 418.993 449.175C417.693 448.575 416.243 448.025 414.643 447.525C413.093 446.975 411.643 446.3 410.293 445.5C408.993 444.65 407.893 443.575 406.993 442.275C406.093 440.975 405.643 439.225 405.643 437.025C405.643 433.425 406.668 430.8 408.718 429.15C410.768 427.45 413.618 426.6 417.268 426.6C419.968 426.6 422.218 426.85 424.018 427.35C425.868 427.8 427.468 428.35 428.818 429L427.393 433.95C426.243 433.4 424.843 432.925 423.193 432.525C421.593 432.075 419.868 431.85 418.018 431.85C415.818 431.85 414.193 432.225 413.143 432.975C412.143 433.725 411.643 435.025 411.643 436.875C411.643 438.175 412.093 439.2 412.993 439.95C413.893 440.65 414.993 441.3 416.293 441.9C417.643 442.45 419.093 443 420.643 443.55C422.243 444.1 423.693 444.825 424.993 445.725C426.343 446.625 427.468 447.775 428.368 449.175C429.268 450.525 429.718 452.325 429.718 454.575C429.718 456.175 429.443 457.675 428.893 459.075C428.393 460.475 427.593 461.675 426.493 462.675C425.393 463.675 424.018 464.45 422.368 465C420.768 465.6 418.868 465.9 416.668 465.9C413.818 465.9 411.393 465.625 409.393 465.075C407.393 464.525 405.718 463.875 404.368 463.125L406.168 458.025C407.318 458.675 408.818 459.275 410.668 459.825C412.518 460.375 414.393 460.65 416.293 460.65C418.443 460.65 420.218 460.225 421.618 459.375C423.018 458.525 423.718 457 423.718 454.8ZM471.606 450.975C471.606 448.975 471.956 447.075 472.656 445.275C473.356 443.425 474.306 441.725 475.506 440.175C476.706 438.625 478.056 437.2 479.556 435.9C481.106 434.6 482.706 433.45 484.356 432.45C483.156 430.65 482.106 428.85 481.206 427.05C480.356 425.25 479.931 423.3 479.931 421.2C479.931 420 480.131 418.825 480.531 417.675C480.931 416.525 481.556 415.5 482.406 414.6C483.306 413.7 484.431 412.975 485.781 412.425C487.181 411.875 488.856 411.6 490.806 411.6C492.856 411.6 494.581 411.875 495.981 412.425C497.381 412.925 498.506 413.6 499.356 414.45C500.206 415.3 500.806 416.25 501.156 417.3C501.556 418.35 501.756 419.425 501.756 420.525C501.756 422.625 500.931 424.8 499.281 427.05C497.681 429.25 495.131 431.375 491.631 433.425C492.431 434.875 493.356 436.375 494.406 437.925C495.506 439.425 496.656 440.925 497.856 442.425C499.056 443.925 500.281 445.425 501.531 446.925C502.781 448.375 504.031 449.725 505.281 450.975C505.831 450.375 506.381 449.625 506.931 448.725C507.481 447.775 508.006 446.8 508.506 445.8C509.056 444.75 509.531 443.675 509.931 442.575C510.381 441.475 510.781 440.425 511.131 439.425L515.781 441.6C515.481 442.45 515.056 443.475 514.506 444.675C513.956 445.825 513.331 447.025 512.631 448.275C511.981 449.475 511.306 450.65 510.606 451.8C509.906 452.9 509.256 453.825 508.656 454.575C509.706 455.575 510.656 456.45 511.506 457.2C512.356 457.9 513.131 458.525 513.831 459.075C514.581 459.575 515.281 460.05 515.931 460.5C516.631 460.9 517.331 461.3 518.031 461.7L514.281 465.9C511.631 464.6 508.606 462.275 505.206 458.925C504.306 459.825 503.306 460.7 502.206 461.55C501.156 462.35 499.956 463.075 498.606 463.725C497.256 464.375 495.756 464.9 494.106 465.3C492.506 465.7 490.731 465.9 488.781 465.9C486.431 465.9 484.206 465.575 482.106 464.925C480.056 464.275 478.256 463.325 476.706 462.075C475.156 460.775 473.906 459.2 472.956 457.35C472.056 455.5 471.606 453.375 471.606 450.975ZM501.681 455.175C500.231 453.725 498.806 452.15 497.406 450.45C496.006 448.75 494.656 447.05 493.356 445.35C492.106 443.65 490.931 442.025 489.831 440.475C488.781 438.875 487.881 437.475 487.131 436.275C485.781 437.275 484.531 438.3 483.381 439.35C482.231 440.4 481.206 441.525 480.306 442.725C479.456 443.875 478.781 445.125 478.281 446.475C477.831 447.825 477.606 449.275 477.606 450.825C477.606 452.375 477.931 453.775 478.581 455.025C479.231 456.225 480.106 457.25 481.206 458.1C482.356 458.9 483.656 459.525 485.106 459.975C486.556 460.425 488.081 460.65 489.681 460.65C490.931 460.65 492.131 460.5 493.281 460.2C494.481 459.85 495.606 459.425 496.656 458.925C497.706 458.425 498.656 457.85 499.506 457.2C500.406 456.55 501.131 455.875 501.681 455.175ZM485.781 421.2C485.781 422.7 486.081 424.2 486.681 425.7C487.331 427.15 488.156 428.6 489.156 430.05C491.806 428.35 493.631 426.8 494.631 425.4C495.681 424 496.206 422.775 496.206 421.725C496.206 420.125 495.806 418.825 495.006 417.825C494.256 416.825 492.931 416.325 491.031 416.325C489.231 416.325 487.906 416.775 487.056 417.675C486.206 418.575 485.781 419.75 485.781 421.2ZM575.86 454.8C575.86 453.3 575.41 452.125 574.51 451.275C573.61 450.425 572.485 449.725 571.135 449.175C569.835 448.575 568.385 448.025 566.785 447.525C565.235 446.975 563.785 446.3 562.435 445.5C561.135 444.65 560.035 443.575 559.135 442.275C558.235 440.975 557.785 439.225 557.785 437.025C557.785 433.425 558.81 430.8 560.86 429.15C562.91 427.45 565.76 426.6 569.41 426.6C572.11 426.6 574.36 426.85 576.16 427.35C578.01 427.8 579.61 428.35 580.96 429L579.535 433.95C578.385 433.4 576.985 432.925 575.335 432.525C573.735 432.075 572.01 431.85 570.16 431.85C567.96 431.85 566.335 432.225 565.285 432.975C564.285 433.725 563.785 435.025 563.785 436.875C563.785 438.175 564.235 439.2 565.135 439.95C566.035 440.65 567.135 441.3 568.435 441.9C569.785 442.45 571.235 443 572.785 443.55C574.385 444.1 575.835 444.825 577.135 445.725C578.485 446.625 579.61 447.775 580.51 449.175C581.41 450.525 581.86 452.325 581.86 454.575C581.86 456.175 581.585 457.675 581.035 459.075C580.535 460.475 579.735 461.675 578.635 462.675C577.535 463.675 576.16 464.45 574.51 465C572.91 465.6 571.01 465.9 568.81 465.9C565.96 465.9 563.535 465.625 561.535 465.075C559.535 464.525 557.86 463.875 556.51 463.125L558.31 458.025C559.46 458.675 560.96 459.275 562.81 459.825C564.66 460.375 566.535 460.65 568.435 460.65C570.585 460.65 572.36 460.225 573.76 459.375C575.16 458.525 575.86 457 575.86 454.8ZM595.802 427.5H599.927L601.052 432H601.352C602.502 430.25 603.977 428.925 605.777 428.025C607.627 427.075 609.727 426.6 612.077 426.6C617.077 426.6 620.802 428.075 623.252 431.025C625.702 433.975 626.927 438.8 626.927 445.5C626.927 448.65 626.502 451.5 625.652 454.05C624.852 456.55 623.702 458.675 622.202 460.425C620.702 462.175 618.877 463.525 616.727 464.475C614.627 465.425 612.277 465.9 609.677 465.9C607.827 465.9 606.352 465.775 605.252 465.525C604.202 465.325 603.052 464.95 601.802 464.4V480H595.802V427.5ZM610.952 431.85C608.402 431.85 606.377 432.525 604.877 433.875C603.427 435.175 602.402 437.175 601.802 439.875V458.475C602.702 459.175 603.727 459.725 604.877 460.125C606.027 460.475 607.552 460.65 609.452 460.65C612.902 460.65 615.627 459.375 617.627 456.825C619.677 454.225 620.702 450.425 620.702 445.425C620.702 443.375 620.527 441.525 620.177 439.875C619.827 438.175 619.252 436.75 618.452 435.6C617.702 434.4 616.702 433.475 615.452 432.825C614.252 432.175 612.752 431.85 610.952 431.85ZM668.629 462C667.129 463.2 665.229 464.15 662.929 464.85C660.679 465.55 658.279 465.9 655.729 465.9C652.879 465.9 650.404 465.45 648.304 464.55C646.204 463.6 644.479 462.275 643.129 460.575C641.779 458.825 640.779 456.75 640.129 454.35C639.479 451.95 639.154 449.25 639.154 446.25C639.154 439.85 640.579 434.975 643.429 431.625C646.279 428.275 650.354 426.6 655.654 426.6C657.354 426.6 659.054 426.8 660.754 427.2C662.454 427.55 663.979 428.25 665.329 429.3C666.679 430.35 667.779 431.85 668.629 433.8C669.479 435.7 669.904 438.225 669.904 441.375C669.904 443.025 669.754 444.85 669.454 446.85H645.379C645.379 449.05 645.604 451 646.054 452.7C646.504 454.4 647.204 455.85 648.154 457.05C649.104 458.2 650.329 459.1 651.829 459.75C653.379 460.35 655.254 460.65 657.454 460.65C659.154 460.65 660.854 460.35 662.554 459.75C664.254 459.15 665.529 458.45 666.379 457.65L668.629 462ZM655.729 431.85C652.779 431.85 650.404 432.625 648.604 434.175C646.854 435.725 645.804 438.375 645.454 442.125H664.054C664.054 438.325 663.329 435.675 661.879 434.175C660.429 432.625 658.379 431.85 655.729 431.85ZM683.614 430.275C685.514 429.125 687.714 428.275 690.214 427.725C692.764 427.175 695.414 426.9 698.164 426.9C700.764 426.9 702.839 427.25 704.389 427.95C705.989 428.65 707.189 429.575 707.989 430.725C708.839 431.825 709.389 433.05 709.639 434.4C709.939 435.75 710.089 437.1 710.089 438.45C710.089 441.45 710.014 444.375 709.864 447.225C709.714 450.075 709.639 452.775 709.639 455.325C709.639 457.175 709.714 458.925 709.864 460.575C710.014 462.225 710.289 463.75 710.689 465.15H706.264L704.689 459.9H704.314C703.864 460.6 703.289 461.3 702.589 462C701.939 462.65 701.139 463.25 700.189 463.8C699.239 464.3 698.139 464.725 696.889 465.075C695.639 465.425 694.214 465.6 692.614 465.6C691.014 465.6 689.514 465.35 688.114 464.85C686.764 464.35 685.589 463.65 684.589 462.75C683.589 461.8 682.789 460.675 682.189 459.375C681.639 458.075 681.364 456.6 681.364 454.95C681.364 452.75 681.814 450.925 682.714 449.475C683.614 447.975 684.864 446.8 686.464 445.95C688.114 445.05 690.064 444.425 692.314 444.075C694.614 443.675 697.139 443.475 699.889 443.475C700.589 443.475 701.264 443.475 701.914 443.475C702.614 443.475 703.314 443.525 704.014 443.625C704.164 442.125 704.239 440.775 704.239 439.575C704.239 436.825 703.689 434.9 702.589 433.8C701.489 432.7 699.489 432.15 696.589 432.15C695.739 432.15 694.814 432.225 693.814 432.375C692.864 432.475 691.864 432.65 690.814 432.9C689.814 433.1 688.839 433.375 687.889 433.725C686.989 434.025 686.189 434.375 685.489 434.775L683.614 430.275ZM694.264 460.35C695.664 460.35 696.914 460.175 698.014 459.825C699.114 459.425 700.064 458.95 700.864 458.4C701.664 457.8 702.314 457.15 702.814 456.45C703.364 455.75 703.764 455.075 704.014 454.425V448.2C703.314 448.15 702.589 448.125 701.839 448.125C701.139 448.075 700.439 448.05 699.739 448.05C698.189 448.05 696.664 448.15 695.164 448.35C693.714 448.5 692.414 448.825 691.264 449.325C690.164 449.775 689.264 450.425 688.564 451.275C687.914 452.075 687.589 453.1 687.589 454.35C687.589 456.1 688.214 457.55 689.464 458.7C690.714 459.8 692.314 460.35 694.264 460.35ZM735.746 448.125H732.296V465H726.296V412.5H732.296V444.45L735.371 443.4L746.996 427.5H753.971L742.496 442.575L739.421 445.05L743.171 448.05L755.696 465H748.271L735.746 448.125ZM793.556 462C792.056 463.2 790.156 464.15 787.856 464.85C785.606 465.55 783.206 465.9 780.656 465.9C777.806 465.9 775.331 465.45 773.231 464.55C771.131 463.6 769.406 462.275 768.056 460.575C766.706 458.825 765.706 456.75 765.056 454.35C764.406 451.95 764.081 449.25 764.081 446.25C764.081 439.85 765.506 434.975 768.356 431.625C771.206 428.275 775.281 426.6 780.581 426.6C782.281 426.6 783.981 426.8 785.681 427.2C787.381 427.55 788.906 428.25 790.256 429.3C791.606 430.35 792.706 431.85 793.556 433.8C794.406 435.7 794.831 438.225 794.831 441.375C794.831 443.025 794.681 444.85 794.381 446.85H770.306C770.306 449.05 770.531 451 770.981 452.7C771.431 454.4 772.131 455.85 773.081 457.05C774.031 458.2 775.256 459.1 776.756 459.75C778.306 460.35 780.181 460.65 782.381 460.65C784.081 460.65 785.781 460.35 787.481 459.75C789.181 459.15 790.456 458.45 791.306 457.65L793.556 462ZM780.656 431.85C777.706 431.85 775.331 432.625 773.531 434.175C771.781 435.725 770.731 438.375 770.381 442.125H788.981C788.981 438.325 788.256 435.675 786.806 434.175C785.356 432.625 783.306 431.85 780.656 431.85ZM826.842 433.275C825.342 432.775 823.917 432.525 822.567 432.525C820.417 432.525 818.717 433.125 817.467 434.325C816.217 435.475 815.442 436.95 815.142 438.75V465H809.142V427.5H813.342L814.467 432.075H814.767C815.717 430.375 816.842 429.075 818.142 428.175C819.492 427.225 821.192 426.75 823.242 426.75C824.692 426.75 826.317 427 828.117 427.5L826.842 433.275ZM856.005 454.8C856.005 453.3 855.555 452.125 854.655 451.275C853.755 450.425 852.63 449.725 851.28 449.175C849.98 448.575 848.53 448.025 846.93 447.525C845.38 446.975 843.93 446.3 842.58 445.5C841.28 444.65 840.18 443.575 839.28 442.275C838.38 440.975 837.93 439.225 837.93 437.025C837.93 433.425 838.955 430.8 841.005 429.15C843.055 427.45 845.905 426.6 849.555 426.6C852.255 426.6 854.505 426.85 856.305 427.35C858.155 427.8 859.755 428.35 861.105 429L859.68 433.95C858.53 433.4 857.13 432.925 855.48 432.525C853.88 432.075 852.155 431.85 850.305 431.85C848.105 431.85 846.48 432.225 845.43 432.975C844.43 433.725 843.93 435.025 843.93 436.875C843.93 438.175 844.38 439.2 845.28 439.95C846.18 440.65 847.28 441.3 848.58 441.9C849.93 442.45 851.38 443 852.93 443.55C854.53 444.1 855.98 444.825 857.28 445.725C858.63 446.625 859.755 447.775 860.655 449.175C861.555 450.525 862.005 452.325 862.005 454.575C862.005 456.175 861.73 457.675 861.18 459.075C860.68 460.475 859.88 461.675 858.78 462.675C857.68 463.675 856.305 464.45 854.655 465C853.055 465.6 851.155 465.9 848.955 465.9C846.105 465.9 843.68 465.625 841.68 465.075C839.68 464.525 838.005 463.875 836.655 463.125L838.455 458.025C839.605 458.675 841.105 459.275 842.955 459.825C844.805 460.375 846.68 460.65 848.58 460.65C850.73 460.65 852.505 460.225 853.905 459.375C855.305 458.525 856.005 457 856.005 454.8Z" fill="black" fill-opacity="0.47"/>
<path d="M377.327 0C369.769 0 363.345 6.42421 363.345 13.9821V141.711C363.345 149.268 369.769 155.693 377.327 155.693C384.885 155.693 391.309 149.268 391.309 141.711V13.9821C391.309 6.42421 384.885 0 377.327 0Z" fill="black"/>
<path d="M432.5 23.4302C424.942 23.4302 418.518 29.8544 418.518 37.4123V118.282C418.518 125.84 424.942 132.264 432.5 132.264C440.058 132.264 446.482 125.84 446.482 118.282V37.4123C446.482 29.4765 440.058 23.4302 432.5 23.4302Z" fill="black"/>
<path d="M322.155 23.4302C314.597 23.4302 308.173 29.8544 308.173 37.4123V118.282C308.173 125.84 314.597 132.264 322.155 132.264C329.713 132.264 336.137 125.84 336.137 118.282V37.4123C336.137 29.4765 329.713 23.4302 322.155 23.4302Z" fill="black"/>
<path d="M487.672 46.8584C480.114 46.8584 473.69 53.2826 473.69 60.8405V95.2289C473.69 102.787 480.114 109.211 487.672 109.211C495.23 109.211 501.654 102.787 501.654 95.2289V60.8405C501.654 52.9047 495.23 46.8584 487.672 46.8584Z" fill="black"/>
<path d="M542.845 23.4302C535.287 23.4302 528.863 29.8544 528.863 37.4123V118.282C528.863 125.84 535.287 132.264 542.845 132.264C550.403 132.264 556.827 125.84 556.827 118.282V37.4123C556.827 29.4765 550.403 23.4302 542.845 23.4302Z" fill="black"/>
<path d="M598.018 46.8584C590.46 46.8584 584.036 53.2826 584.036 60.8405V95.2289C584.036 102.787 590.46 109.211 598.018 109.211C605.576 109.211 612 102.787 612 95.2289V60.8405C612 52.9047 605.576 46.8584 598.018 46.8584Z" fill="black"/>
<path d="M266.982 46.8584C259.424 46.8584 253 53.2826 253 60.8405V95.2289C253 102.787 259.424 109.211 266.982 109.211C274.54 109.211 280.964 102.787 280.964 95.2289V60.8405C280.964 52.9047 274.918 46.8584 266.982 46.8584Z" fill="black"/>
</svg>
